# xmcd CD database file
#
# Track frame offsets:
#	150
#	16214
#	34070
#	46911
#	71473
#	82077
#	95701
#	105906
#	128513
#	141649
#	155140
#	168404
#	180521
#	192448
#	210524
#
# Disc length: 2982 seconds
#
# Revision: 3
# Processed by: cddbd v1.5.2PL0 Copyright (c) Steve Scherf et al.
# Submitted via: CDex 1.51
#
DISCID=cb0ba40f
DTITLE=Various Artist - The Essential Guide To Country  [CD 2-3] - The 60s Legacy
DYEAR=2007
DGENRE=Country
TTITLE0=The Byrds - Hickory Wind
TTITLE1=The Flying Burrito Brother - Do Right Woman
TTITLE2=Chris Hillman and Herb Pedersen - Close Up The Honky Tonks
TTITLE3=Guy Clark - Desperados Waiting For A Train  (live)
TTITLE4=Willie Nelson - Blue Eyes Crying In The Rain
TTITLE5=Ricky Skaggs feat. Emmylou Harris - Sweet Temptation
TTITLE6=Chet Atkins - Flatt Did It
TTITLE7=Byron Berline feat. Bill Monroe and Earl Scruggs - Sally Goodin
TTITLE8=Osborne Brothers - Blue Moon Of Kentucky
TTITLE9=Loretta Lynn - Coal Miner's Daughter
TTITLE10=Tanya Tucker - Delta Dawn
TTITLE11=Tammy Wynette - Stand By Your Man
TTITLE12=Dolly Parton - Jolene
TTITLE13=Jesse Winchester feat. Vince Gill - Just 'Cause I`m In Love With You
TTITLE14=The Flatlanders - Tonight I Think I`m Gonna Go Downtown
EXTD=YEAR: 2007
EXTT0=
EXTT1=
EXTT2=
EXTT3=
EXTT4=
EXTT5=
EXTT6=
EXTT7=
EXTT8=
EXTT9=
EXTT10=
EXTT11=
EXTT12=
EXTT13=
EXTT14=
PLAYORDER=
